<?xml version="1.0" encoding="UTF-8" standalone="no"?>
<!-- Created with Inkscape (http://www.inkscape.org/) -->

<svg
   width="100mm"
   height="100mm"
   viewBox="0 0 100 100"
   version="1.1"
   id="svg1"
   xml:space="preserve"
   sodipodi:docname="verity.svg"
   inkscape:version="1.3 (0e150ed, 2023-07-21)"
   xmlns:inkscape="http://www.inkscape.org/namespaces/inkscape"
   xmlns:sodipodi="http://sodipodi.sourceforge.net/DTD/sodipodi-0.dtd"
   xmlns:xlink="http://www.w3.org/1999/xlink"
   xmlns="http://www.w3.org/2000/svg"
   xmlns:svg="http://www.w3.org/2000/svg"><sodipodi:namedview
     id="namedview1"
     pagecolor="#ffffff"
     bordercolor="#000000"
     borderopacity="0.25"
     inkscape:showpageshadow="2"
     inkscape:pageopacity="0.0"
     inkscape:pagecheckerboard="0"
     inkscape:deskcolor="#d1d1d1"
     inkscape:document-units="mm"
     inkscape:zoom="0.9895356"
     inkscape:cx="-23.243226"
     inkscape:cy="187.96696"
     inkscape:window-width="1624"
     inkscape:window-height="709"
     inkscape:window-x="0"
     inkscape:window-y="38"
     inkscape:window-maximized="0"
     inkscape:current-layer="layer1"><inkscape:page
       x="-5.8204346e-06"
       y="-7.2119144e-07"
       width="100"
       height="100"
       id="page2"
       margin="0"
       bleed="0" /></sodipodi:namedview><defs
     id="defs1"><linearGradient
       id="linearGradient4"
       inkscape:collect="always"><stop
         style="stop-color:#000000;stop-opacity:0;"
         offset="0"
         id="stop1" /><stop
         style="stop-color:#000000;stop-opacity:0;"
         offset="0.80279893"
         id="stop2" /><stop
         style="stop-color:#000000;stop-opacity:0.14522822;"
         offset="0.90437657"
         id="stop3" /><stop
         style="stop-color:#000000;stop-opacity:0.2997658;"
         offset="1"
         id="stop4" /></linearGradient><linearGradient
       id="linearGradient47"
       inkscape:collect="always"><stop
         style="stop-color:#000000;stop-opacity:0;"
         offset="0"
         id="stop47" /><stop
         style="stop-color:#000000;stop-opacity:0;"
         offset="0.80279893"
         id="stop49" /><stop
         style="stop-color:#000000;stop-opacity:0.14522822;"
         offset="0.90437657"
         id="stop50" /><stop
         style="stop-color:#000000;stop-opacity:0.30444965;"
         offset="1"
         id="stop48" /></linearGradient><linearGradient
       id="linearGradient43"
       inkscape:collect="always"><stop
         style="stop-color:#000000;stop-opacity:0;"
         offset="0"
         id="stop43" /><stop
         style="stop-color:#000000;stop-opacity:0;"
         offset="0.83460557"
         id="stop51" /><stop
         style="stop-color:#000000;stop-opacity:0.03;"
         offset="0.87432563"
         id="stop45" /><stop
         style="stop-color:#000000;stop-opacity:0.19087137;"
         offset="0.94"
         id="stop46" /><stop
         style="stop-color:#000000;stop-opacity:0.50207472;"
         offset="1"
         id="stop44" /></linearGradient><linearGradient
       id="linearGradient32"
       inkscape:collect="always"><stop
         style="stop-color:#000000;stop-opacity:0;"
         offset="0"
         id="stop32" /><stop
         style="stop-color:#0e1425;stop-opacity:0;"
         offset="0.7722646"
         id="stop34" /><stop
         style="stop-color:#000000;stop-opacity:0.58921164;"
         offset="0.9357506"
         id="stop35" /><stop
         style="stop-color:#000000;stop-opacity:0.9087137;"
         offset="1"
         id="stop33" /></linearGradient><linearGradient
       id="linearGradient29"
       inkscape:collect="always"><stop
         style="stop-color:#00142e;stop-opacity:1;"
         offset="0"
         id="stop30" /><stop
         style="stop-color:#114b9b;stop-opacity:1;"
         offset="1"
         id="stop31" /></linearGradient><linearGradient
       id="linearGradient24"
       inkscape:collect="always"><stop
         style="stop-color:#19c7fe;stop-opacity:1;"
         offset="0"
         id="stop25" /><stop
         style="stop-color:#43afe6;stop-opacity:1;"
         offset="0.35783795"
         id="stop28" /><stop
         style="stop-color:#2984d3;stop-opacity:1;"
         offset="0.71294123"
         id="stop27" /><stop
         style="stop-color:#2075cc;stop-opacity:1;"
         offset="1"
         id="stop29" /></linearGradient><linearGradient
       id="linearGradient20"
       inkscape:collect="always"><stop
         style="stop-color:#18acf0;stop-opacity:1;"
         offset="0"
         id="stop21" /><stop
         style="stop-color:#2379cf;stop-opacity:1;"
         offset="0.45674682"
         id="stop23" /><stop
         style="stop-color:#1a4569;stop-opacity:1;"
         offset="1"
         id="stop22" /></linearGradient><linearGradient
       id="linearGradient7"
       inkscape:collect="always"><stop
         style="stop-color:#5ad2fd;stop-opacity:1;"
         offset="0"
         id="stop8" /><stop
         style="stop-color:#2078c2;stop-opacity:1;"
         offset="1"
         id="stop24" /></linearGradient><clipPath
       clipPathUnits="userSpaceOnUse"
       id="clipPath4-9"><path
         d="M 0,382.996 H 392 V 0 H 0 Z"
         transform="translate(-135.8344,-333.26211)"
         id="path4-5" /></clipPath><clipPath
       clipPathUnits="userSpaceOnUse"
       id="clipPath6-6"><path
         d="M 0,382.996 H 392 V 0 H 0 Z"
         transform="translate(-218.95391,-118.7584)"
         id="path6-2" /></clipPath><clipPath
       clipPathUnits="userSpaceOnUse"
       id="clipPath8-8"><path
         d="M 0,382.996 H 392 V 0 H 0 Z"
         transform="translate(-56.926504,-329.92801)"
         id="path8-5" /></clipPath><clipPath
       clipPathUnits="userSpaceOnUse"
       id="clipPath10-9"><path
         d="M 0,382.996 H 392 V 0 H 0 Z"
         transform="translate(-335.07351,-222.41891)"
         id="path10-4" /></clipPath><linearGradient
       inkscape:collect="always"
       xlink:href="#linearGradient20"
       id="linearGradient22"
       x1="-80.757652"
       y1="17.22476"
       x2="-32.687695"
       y2="-26.610146"
       gradientUnits="userSpaceOnUse"
       spreadMethod="pad" /><linearGradient
       inkscape:collect="always"
       xlink:href="#linearGradient7"
       id="linearGradient23"
       x1="-94.494263"
       y1="-26.524952"
       x2="-52.925228"
       y2="-110.11427"
       gradientUnits="userSpaceOnUse" /><linearGradient
       inkscape:collect="always"
       xlink:href="#linearGradient24"
       id="linearGradient26"
       x1="8.8002186"
       y1="-7.4999604"
       x2="182.79398"
       y2="-18.788351"
       gradientUnits="userSpaceOnUse"
       spreadMethod="pad" /><linearGradient
       inkscape:collect="always"
       xlink:href="#linearGradient29"
       id="linearGradient31"
       x1="-31.323978"
       y1="-68.894691"
       x2="118.87292"
       y2="-144.38055"
       gradientUnits="userSpaceOnUse" /><linearGradient
       inkscape:collect="always"
       xlink:href="#linearGradient32"
       id="linearGradient33"
       x1="-0.28756559"
       y1="-85.460091"
       x2="116.19269"
       y2="-156.59242"
       gradientUnits="userSpaceOnUse" /><linearGradient
       inkscape:collect="always"
       xlink:href="#linearGradient43"
       id="linearGradient44"
       x1="28.029819"
       y1="-90.888756"
       x2="176.24504"
       y2="-186.44963"
       gradientUnits="userSpaceOnUse" /><linearGradient
       inkscape:collect="always"
       xlink:href="#linearGradient47"
       id="linearGradient48"
       x1="-54.193233"
       y1="21.089664"
       x2="-9.869894"
       y2="-18.586699"
       gradientUnits="userSpaceOnUse" /><linearGradient
       inkscape:collect="always"
       xlink:href="#linearGradient4"
       id="linearGradient1"
       gradientUnits="userSpaceOnUse"
       x1="-71.4478"
       y1="40.453186"
       x2="-46.857327"
       y2="-51.03516" /></defs><g
     inkscape:label="vera"
     inkscape:groupmode="layer"
     id="layer1"
     transform="translate(-26.737568,-37.535424)"><path
       id="path5-0"
       d="M -40.472519,11.166898 C -55.495707,14.998 -71.001761,20.28539 -96.497812,21.211432 -121.99387,22.137474 -88.869511,9.4376586 -77.727651,-18.499376 -66.585791,-46.43641 -81.748056,-51.12306 -63.11784,-50.670492 -44.487624,-50.217924 17.086533,-2.9952316 0.65512482,0.55282002 -15.776283,4.1008716 -25.449331,7.3357957 -40.472519,11.166898 Z"
       style="display:inline;opacity:1;fill:url(#linearGradient22);fill-rule:nonzero;stroke:none;stroke-width:2.83465;stroke-linecap:butt;stroke-linejoin:miter;stroke-miterlimit:10;stroke-dasharray:none;stroke-opacity:1"
       transform="matrix(0.36527957,0,0,-0.36527957,85.285202,115.87994)"
       clip-path="url(#clipPath6-6)"
       inkscape:label="tail"
       sodipodi:nodetypes="zzzzzz" /><path
       id="path47"
       d="M -40.472519,11.166898 C -55.495707,14.998 -71.001761,20.28539 -96.497812,21.211432 -121.99387,22.137474 -88.869511,9.4376586 -77.727651,-18.499376 -66.585791,-46.43641 -81.748056,-51.12306 -63.11784,-50.670492 -44.487624,-50.217924 17.086533,-2.9952316 0.65512482,0.55282002 -15.776283,4.1008716 -25.449331,7.3357957 -40.472519,11.166898 Z"
       style="display:inline;opacity:1;fill:url(#linearGradient48);fill-rule:nonzero;stroke:none;stroke-width:2.83465;stroke-linecap:butt;stroke-linejoin:miter;stroke-miterlimit:10;stroke-dasharray:none;stroke-opacity:1"
       transform="matrix(0.36527958,0,0,-0.36527958,85.285202,115.87994)"
       clip-path="url(#clipPath6-6)"
       inkscape:label="tail - shadow vertical"
       sodipodi:nodetypes="zzzzzz" /><path
       id="path51"
       d="M -40.472519,11.166898 C -55.495707,14.998 -71.001761,20.28539 -96.497812,21.211432 -121.99387,22.137474 -88.869511,9.4376586 -77.727651,-18.499376 -66.585791,-46.43641 -81.748056,-51.12306 -63.11784,-50.670492 -44.487624,-50.217924 17.086533,-2.9952316 0.65512482,0.55282002 -15.776283,4.1008716 -25.449331,7.3357957 -40.472519,11.166898 Z"
       style="display:inline;opacity:1;fill:url(#linearGradient1);fill-rule:nonzero;stroke:none;stroke-width:2.83465;stroke-linecap:butt;stroke-linejoin:miter;stroke-miterlimit:10;stroke-dasharray:none;stroke-opacity:1"
       transform="matrix(0.36527958,0,0,-0.36527958,85.285202,115.87994)"
       clip-path="url(#clipPath6-6)"
       inkscape:label="tail - shadow horizontal"
       sodipodi:nodetypes="zzzzzz" /><path
       id="path3-9"
       d="m 6.8981522,-51.163632 c 0.6746173,-7.655748 2.153282,-19.286826 8.3068018,-25.030584 6.15352,-5.743758 16.218313,-9.241215 24.493868,-13.93248 15.800469,-8.957004 28.698824,-16.075254 36.989817,-25.114324 8.290992,-9.03907 23.552661,-26.66451 29.359771,-65.79134 5.80711,-39.12684 23.76536,25.14807 17.29756,46.08778 -6.46781,20.93971 -14.91682,39.609554 -27.089013,52.486558 -12.172194,12.877005 -33.172843,27.099815 -44.135403,36.252319 -10.96256,9.152504 -26.082441,22.538311 -35.334763,31.279517 C 7.534469,-6.1849797 4.0667172,-2.8363528 4.3707789,-15.628787 4.6748407,-28.421222 6.2235348,-43.507885 6.8981522,-51.163632 Z"
       style="display:inline;opacity:1;fill:url(#linearGradient31);fill-rule:nonzero;stroke:none;stroke-width:2.83465;stroke-linecap:butt;stroke-linejoin:miter;stroke-miterlimit:10;stroke-dasharray:none;stroke-opacity:1"
       transform="matrix(0.36527958,0,0,-0.36527958,53.880879,38.279826)"
       clip-path="url(#clipPath4-9)"
       inkscape:label="upper wing"
       sodipodi:nodetypes="zzszzzzzzzz" /><path
       id="path32"
       d="m 6.8981522,-51.163632 c 0.6746173,-7.655748 2.153282,-19.286826 8.3068018,-25.030584 6.15352,-5.743758 16.218313,-9.241215 24.493868,-13.93248 15.800469,-8.957004 28.698824,-16.075254 36.989817,-25.114324 8.290992,-9.03907 23.552661,-26.66451 29.359771,-65.79134 5.80711,-39.12684 23.76536,25.14807 17.29756,46.08778 -6.46781,20.93971 -14.91682,39.609554 -27.089013,52.486558 -12.172194,12.877005 -33.172843,27.099815 -44.135403,36.252319 -10.96256,9.152504 -26.082441,22.538311 -35.334763,31.279517 C 7.534469,-6.1849797 4.0667172,-2.8363528 4.3707789,-15.628787 4.6748407,-28.421222 6.2235348,-43.507885 6.8981522,-51.163632 Z"
       style="display:inline;opacity:1;fill:url(#linearGradient33);fill-rule:nonzero;stroke:none;stroke-width:2.83465;stroke-linecap:butt;stroke-linejoin:miter;stroke-miterlimit:10;stroke-dasharray:none;stroke-opacity:1"
       transform="matrix(0.36527958,0,0,-0.36527958,53.880879,38.279826)"
       clip-path="url(#clipPath4-9)"
       inkscape:label="upper wing - shadow"
       sodipodi:nodetypes="zzszzzzzzzz" /><path
       id="path7-5"
       d="m 45.978298,-123.74412 c 10.931512,-12.61439 17.396689,-18.19184 32.888435,-27.54073 15.491746,-9.34889 38.058687,-18.7538 47.522767,-24.49532 15.69096,-9.51914 22.8875,-14.47794 38.41053,-34.44277 15.52304,-19.96484 19.88031,23.44551 20.1284,33.09983 0.2481,9.65432 -0.35208,16.08395 -3.20612,24.95975 -2.85404,8.8758 -5.77866,15.02234 -12.41844,25.49633 -6.63978,10.474 -15.17384,21.14963 -27.44363,29.381047 -12.26979,8.231416 -32.97257,18.500006 -42.828909,24.654691 -9.856336,6.154686 -33.135283,22.5682 -44.322124,30.926325 -11.186841,8.358126 -23.153108,18.408053 -30.672928,24.272022 C 6.6778251,-3.8967931 5.0796616,2.232874 8.3190148,-21.00467 11.558368,-44.242214 17.800384,-69.18472 21.839244,-80.442741 29.348481,-101.37418 42.106694,-119.2765 45.978298,-123.74412 Z"
       style="display:inline;opacity:1;fill:url(#linearGradient26);fill-rule:nonzero;stroke:none;stroke-width:2.83465;stroke-linecap:butt;stroke-linejoin:miter;stroke-miterlimit:10;stroke-dasharray:none;stroke-opacity:1"
       transform="matrix(0.36527957,0,0,-0.36527957,25.057437,39.497708)"
       clip-path="url(#clipPath8-8)"
       inkscape:label="lower wing"
       sodipodi:nodetypes="szszzzzzzzszss" /><path
       id="path35"
       d="m 45.978298,-123.74412 c 10.931512,-12.61439 17.396689,-18.19184 32.888435,-27.54073 15.491746,-9.34889 38.058687,-18.7538 47.522767,-24.49532 15.69096,-9.51914 22.8875,-14.47794 38.41053,-34.44277 15.52304,-19.96484 19.88031,23.44551 20.1284,33.09983 0.2481,9.65432 -0.35208,16.08395 -3.20612,24.95975 -2.85404,8.8758 -5.77866,15.02234 -12.41844,25.49633 -6.63978,10.474 -15.17384,21.14963 -27.44363,29.381047 -12.26979,8.231416 -32.97257,18.500006 -42.828909,24.654691 -9.856336,6.154686 -33.135283,22.5682 -44.322124,30.926325 -11.186841,8.358126 -23.153108,18.408053 -30.672928,24.272022 C 6.6778251,-3.8967931 5.0796616,2.232874 8.3190148,-21.00467 11.558368,-44.242214 17.800384,-69.18472 21.839244,-80.442741 29.348481,-101.37418 42.106694,-119.2765 45.978298,-123.74412 Z"
       style="display:inline;opacity:1;fill:url(#linearGradient44);fill-rule:nonzero;stroke:none;stroke-width:2.83465;stroke-linecap:butt;stroke-linejoin:miter;stroke-miterlimit:10;stroke-dasharray:none;stroke-opacity:1"
       transform="matrix(0.36527958,0,0,-0.36527958,25.057437,39.497708)"
       clip-path="url(#clipPath8-8)"
       inkscape:label="lower wing - shadow"
       sodipodi:nodetypes="szszzzzzzzszss" /><path
       id="path9-6"
       d="m -14.748679,-1.435888 c 11.3202667,0.64674203 11.6846577,-4.4822696 3.821314,-8.691504 -7.863343,-4.209233 -16.25617,-10.754539 -17.463021,-23.443757 -1.206851,-12.689218 -2.436619,-25.57868 -6.69897,-37.561087 -4.286542,-12.050413 -10.625996,-23.568416 -18.631825,-33.543064 -8.414809,-10.48421 -19.022558,-19.25478 -30.183294,-26.74915 -8.348968,-5.60628 -17.579115,-9.9925 -27.066885,-13.32685 -11.33269,-3.98273 -23.23792,-6.51699 -35.18057,-7.80744 -4.88759,-0.52812 -6.63125,-0.57518 -24.08004,-1.67428 -5.49267,-0.34598 -11.25954,-0.25474 -14.32819,-0.008 -0.6903,0.0555 -0.77956,0.0883 -1.2236,0.16028 -2.41798,0.39217 -4.16921,1.69476 0.32306,2.09738 11.70135,1.04874 20.75162,5.38598 25.67979,8.37036 4.92817,2.98438 9.582,5.97791 19.254,14.75331 9.672,8.7754 28.14051,32.253393 39.04133,50.537665 7.579583,12.713467 12.227434,26.962936 18.003327,40.5909 2.579366,6.0859 4.257577,12.58696 7.434242,18.38352 2.820164,5.146042 7.304083,11.9798825 10.205298,14.3446015 4.838159,3.9434807 9.646758,6.090395 13.643591,7.05629 3.996834,0.965895 12.427163,2.5050651 18.149205,-0.2884696 5.722042,-2.7935349 7.980971,-3.847417 19.301238,-3.2006749 z"
       style="display:inline;opacity:1;fill:url(#linearGradient23);fill-opacity:1;fill-rule:nonzero;stroke:none;stroke-width:2.83465;stroke-linecap:butt;stroke-linejoin:miter;stroke-miterlimit:10;stroke-dasharray:none;stroke-opacity:1"
       transform="matrix(0.36527957,0,0,-0.36527957,127.70133,78.014872)"
       clip-path="url(#clipPath10-9)"
       sodipodi:nodetypes="zzzaaaassssszzaaaszzzz"
       inkscape:label="body" /></g></svg>
